<?xml version="1.0" encoding="utf-8"?>
<!-- Generator: Adobe Illustrator 16.0.0, SVG Export Plug-In . SVG Version: 6.00 Build 0)  -->
<!DOCTYPE svg PUBLIC "-//W3C//DTD SVG 1.1//EN" "http://www.w3.org/Graphics/SVG/1.1/DTD/svg11.dtd">
<svg version="1.1" id="Layer_1" xmlns="http://www.w3.org/2000/svg" xmlns:xlink="http://www.w3.org/1999/xlink" x="0px" y="0px"
	 width="155.324px" height="152.934px" viewBox="0 0 155.324 152.934" enable-background="new 0 0 155.324 152.934"
	 xml:space="preserve">
<g>
	<path fill="#44454F" d="M141.389,47.782c0.049,2.261,0.041,3.777,0.117,5.291c0.246,4.821-0.584,9.682,0.719,14.481
		c0.297,1.094-0.705,2.521-0.459,3.65c1.278,5.846-1.301,11.77,0.465,17.578c0.133,0.438,0.094,0.936,0.082,1.401
		c-0.215,8.435-0.476,16.869-0.643,25.306c-0.061,3.071-1.327,5.52-3.768,7.184c-1.358,0.926-3.076,1.449-4.709,1.811
		c-1.348,0.298-2.809,0.101-4.217,0.101c-34.309,0.002-68.616,0.004-102.923-0.002c-1.566,0-3.146,0.074-4.695-0.103
		c-4.124-0.467-7.477-3.92-7.914-8.059c-0.098-0.932-0.068-1.877-0.068-2.818c0.001-20.364,0.002-40.729,0.023-61.097
		c0.001-1.358,0.15-2.718,0.274-4.813c4.884,2.235,8.8,5.022,13.019,7.192c4.301,2.211,8.387,4.843,12.558,7.305
		c4.145,2.445,8.266,4.93,12.42,7.358c4.179,2.445,8.38,4.854,12.582,7.262c4.195,2.403,8.403,4.783,13.088,7.447
		c10.926-5.242,21.071-12.257,31.834-18.147C119.783,60.307,130.205,54.164,141.389,47.782z"/>
	<path fill="#44454F" d="M141.951,42.373c-6.53,5.207-14.188,8.435-21.123,12.807c-7.118,4.488-14.61,8.378-21.895,12.608
		c-7.127,4.139-14.195,8.375-21.334,12.595c-21.294-12.325-42.341-24.504-63.374-36.71c-0.51-0.296-0.842-0.896-1.228-1.323
		c0.141-1.79,0.274-3.479,0.408-5.167c0.413-5.208,3.871-8.589,9.105-8.865c1.093-0.058,2.192-0.02,3.288-0.02
		c34.604-0.001,69.208-0.002,103.812,0.001c1.252,0,2.514-0.053,3.756,0.068c4.383,0.43,7.812,3.859,8.246,8.243
		C141.781,38.306,141.816,40.013,141.951,42.373z"/>
</g>
</svg>
