<?xml version="1.0" encoding="utf-8"?>
<!-- Generator: Adobe Illustrator 16.0.0, SVG Export Plug-In . SVG Version: 6.00 Build 0)  -->
<!DOCTYPE svg PUBLIC "-//W3C//DTD SVG 1.1//EN" "http://www.w3.org/Graphics/SVG/1.1/DTD/svg11.dtd">
<svg version="1.1" id="Layer_1" xmlns="http://www.w3.org/2000/svg" xmlns:xlink="http://www.w3.org/1999/xlink" x="0px" y="0px"
	 width="155.324px" height="152.934px" viewBox="0 0 155.324 152.934" enable-background="new 0 0 155.324 152.934"
	 xml:space="preserve">
<g id="GnaIXO_1_">
	<g>
		<path fill="#E3D6AB" d="M79.17,135.993c-14.548,0.001-29.097,0.01-43.646-0.004c-6.764-0.008-12.462-4-14.587-10.354
			c-0.512-1.53-0.765-3.22-0.768-4.837c-0.044-29.228-0.05-58.453-0.021-87.68c0.008-8.504,6.68-15.176,15.183-15.185
			c29.227-0.026,58.453-0.026,87.679,0c8.504,0.008,15.176,6.679,15.184,15.185c0.029,29.227,0.029,58.452,0,87.68
			c-0.01,8.546-6.702,15.171-15.278,15.187C108.332,136.013,93.751,135.993,79.17,135.993z M43.88,67.972c-3.437,0-6.986,0-10.594,0
			c0,0.399,0,0.72,0,1.04c0,16.03-0.001,32.062,0.001,48.091c0,3.495,1.807,5.301,5.311,5.301c26.964,0.004,53.927,0.004,80.892,0
			c3.473,0,5.344-1.854,5.345-5.297c0.002-16.028,0.001-32.061,0.001-48.091c0-0.342,0-0.684,0-1.056c-3.495,0-6.859,0-10.316,0
			c0.099,0.418,0.166,0.757,0.256,1.09c1.879,6.997,1.67,13.953-0.836,20.73c-6.223,16.829-23.59,26.534-42.164,23.067
			c-6.582-1.229-12.329-4.216-17.307-8.712c-8.549-7.722-12.533-17.308-11.728-28.805C42.913,72.88,43.485,70.454,43.88,67.972z
			 M80.9,53.772c-6.972-0.023-11.896,1.504-16.213,4.852c-8.277,6.415-10.959,15.828-8.029,25
			c3.518,11.009,14.895,18.108,27.599,15.601c6.066-1.198,10.81-4.497,14.521-9.377c5.007-6.582,5.688-16.958,1.414-24.034
			C95.477,58.006,88.521,53.939,80.9,53.772z M112.842,54.345c2.16,0,4.322,0.012,6.482-0.003c3.275-0.022,5.479-2.184,5.503-5.449
			c0.028-4.128,0.03-8.257-0.001-12.386c-0.024-3.165-2.278-5.404-5.457-5.425c-4.354-0.028-8.709-0.028-13.062,0
			c-3.184,0.021-5.425,2.249-5.449,5.428c-0.032,4.128-0.031,8.257-0.002,12.385c0.024,3.271,2.226,5.423,5.504,5.446
			C108.52,54.357,110.682,54.345,112.842,54.345z"/>
	</g>
</g>
</svg>
