<?xml version="1.0" encoding="utf-8"?>
<!-- Generator: Adobe Illustrator 16.0.0, SVG Export Plug-In . SVG Version: 6.00 Build 0)  -->
<!DOCTYPE svg PUBLIC "-//W3C//DTD SVG 1.1//EN" "http://www.w3.org/Graphics/SVG/1.1/DTD/svg11.dtd">
<svg version="1.1" id="Layer_1" xmlns="http://www.w3.org/2000/svg" xmlns:xlink="http://www.w3.org/1999/xlink" x="0px" y="0px"
	 width="155.324px" height="152.934px" viewBox="0 0 155.324 152.934" enable-background="new 0 0 155.324 152.934"
	 xml:space="preserve">
<g>
	<path fill="#E3D6AB" d="M56.467,49.769c-1.353,1.443-2.188,2.314-3,3.207c-0.708,0.777-1.389,1.578-2.013,2.29
		c4.666,19.375,28.647,43.16,47.491,47.434c1.554-1.434,3.214-2.963,5.246-4.833c10.438,9.47,19.979,19.726,29.968,29.662
		c-4.688,7.146-11.341,10.242-19.433,10.951c-16.285,1.431-30.729-3.469-44.267-12.188c-11.063-7.129-20.797-15.754-29.536-25.477
		c-6.674-7.424-12.758-15.362-17.312-24.348c-4.205-8.296-6.878-16.952-8.014-26.283c-0.778-6.384,0.256-12.252,1.725-18.263
		c0.821-3.362,2.419-6.131,5.076-8.375c1.263-1.065,2.268-2.437,3.679-3.984C36.638,29.434,46.1,39.764,56.467,49.769z"/>
	<path fill="#E3D6AB" d="M138.25,70.84c-1.846-0.087-2.831-0.133-4.034-0.189c-3.239-12.55-9.084-23.507-18.165-32.638
		c-9.09-9.14-20.166-14.797-32.479-18.221c-0.147-0.857-0.324-1.434-0.32-2.004c0.002-0.417,0.24-0.832,0.428-1.413
		c0.575-0.103,1.209-0.41,1.713-0.27c3.482,0.99,7.088,1.739,10.383,3.184c21.101,9.228,35.104,24.854,41.732,46.973
		C137.878,67.506,137.934,68.844,138.25,70.84z"/>
	<path fill="#E3D6AB" d="M29.812,16.782c2.694-2.813,2.694-2.813,8.237-2.331c0.84,0.788,1.979,1.771,3.023,2.851
		c6.333,6.537,12.663,13.078,18.959,19.65c3.552,3.708,3.334,6.113-0.549,9.652C49.664,36.737,39.853,26.875,29.812,16.782z"/>
	<path fill="#E3D6AB" d="M107.271,94.935c0.246-0.354,0.449-0.781,0.771-1.084c0.659-0.621,1.381-1.176,2.204-1.865
		c1.418,0,2.906,0,4.755,0c8.146,7.853,16.416,15.818,24.515,23.622c0.812,3.615,0.868,6.657-2.139,8.936
		C134.497,122.906,111.17,99.948,107.271,94.935z"/>
	<path fill="#E3D6AB" d="M126.986,72.195c-0.668,0.733-1.17,1.282-1.709,1.875c-0.493-0.089-0.924-0.135-1.334-0.245
		c-1.703-0.471-1.614-2.11-1.978-3.323c-1.384-4.665-3.315-9.045-5.78-13.253c-5.619-9.585-13.533-16.673-23.367-21.597
		c-3.756-1.88-7.854-3.077-12.314-4.79c0.128-0.969,0.285-2.151,0.508-3.829c11.735,2.703,21.418,7.859,29.562,15.922
		C118.742,51.04,124.064,60.736,126.986,72.195z"/>
	<path fill="#E3D6AB" d="M76.92,40.435c1.898-2.035,3.415-1.708,4.876-1.27c9.524,2.866,17.451,8.062,23.835,15.778
		c4.133,4.994,7.064,10.52,9.064,16.621c0.576,1.768,1.137,3.466-0.301,5.059c-2.34,0.554-2.951-1.112-3.574-2.649
		c-1.021-2.518-1.771-5.162-2.967-7.59c-5.416-10.998-14.049-18.406-25.588-22.463c-0.998-0.353-2.115-0.505-2.976-1.063
		C78.4,42.275,77.754,41.314,76.92,40.435z"/>
</g>
</svg>
