<?xml version="1.0" encoding="utf-8"?>
<!-- Generator: Adobe Illustrator 16.0.0, SVG Export Plug-In . SVG Version: 6.00 Build 0)  -->
<!DOCTYPE svg PUBLIC "-//W3C//DTD SVG 1.1//EN" "http://www.w3.org/Graphics/SVG/1.1/DTD/svg11.dtd">
<svg version="1.1" id="Layer_1" xmlns="http://www.w3.org/2000/svg" xmlns:xlink="http://www.w3.org/1999/xlink" x="0px" y="0px"
	 width="155.324px" height="152.934px" viewBox="0 0 155.324 152.934" enable-background="new 0 0 155.324 152.934"
	 xml:space="preserve">
<g id="J4hUbW_1_">
	<g>
		<path fill="#44454F" d="M78.301,55.802c-0.177-1.679-0.373-3.154-0.486-4.633c-0.974-12.755,7.104-24.581,19.171-28.375
			c10.322-3.245,19.687-1.131,27.763,6.122c1.078,0.967,1.925,1.205,3.315,0.86c5.063-1.248,9.89-3.054,14.44-5.597
			c0.354-0.198,0.724-0.375,1.326-0.687c-0.619,2.278-1.503,4.208-2.714,5.952c-1.209,1.74-2.465,3.479-3.922,5.003
			c-1.479,1.545-3.232,2.827-5.037,4.372c1.377-0.228,2.628-0.4,3.865-0.647c1.314-0.262,2.625-0.555,3.918-0.907
			c1.258-0.342,2.502-0.745,3.731-1.178c1.218-0.427,2.408-0.924,3.771-1.201c-0.983,1.325-1.916,2.696-2.969,3.965
			c-2.916,3.515-6.141,6.719-9.834,9.422c-0.685,0.501-0.886,1.05-0.867,1.877c0.399,18.505-4.979,35.25-15.721,50.227
			c-9.447,13.167-21.895,22.484-37.275,27.718c-9.596,3.264-19.5,4.562-29.633,4.182c-10.414-0.395-20.378-2.714-29.85-7.029
			c-3.333-1.518-6.515-3.369-9.72-5.237c15.088,1.208,28.667-2.494,40.902-11.749c-12.827-1.108-21.391-7.503-26.115-19.528
			c4.318,0.662,8.306,0.618,12.541-0.533c-6.648-1.571-11.988-4.796-16.089-9.927c-4.115-5.149-6.186-11.025-6.14-17.849
			c3.936,2.039,7.906,3.241,12.225,3.306c-6.781-5.022-10.856-11.654-11.837-20.001c-0.707-6.005,0.465-11.724,3.593-17.143
			C35.786,44.375,54.92,54.163,78.301,55.802z"/>
	</g>
</g>
</svg>
